<?xml version="1.0" encoding="UTF-8" standalone="no"?>
<!-- Generator: Gravit.io -->
<svg xmlns="http://www.w3.org/2000/svg" xmlns:xlink="http://www.w3.org/1999/xlink" style="isolation:isolate" viewBox="0 0 256 256" width="256" height="256"><defs><clipPath id="_clipPath_k5KmXckxp8ofMLEMwSKLhLcfDRcdKa0h"><rect width="256" height="256"/></clipPath></defs><g clip-path="url(#_clipPath_k5KmXckxp8ofMLEMwSKLhLcfDRcdKa0h)"><clipPath id="_clipPath_fYQ6nd3SlC9Q3ZMfjkW0YPy4rnBDrSrt"><rect x="0" y="0" width="256" height="256" transform="matrix(1,0,0,1,0,0)" fill="rgb(255,255,255)"/></clipPath><g clip-path="url(#_clipPath_fYQ6nd3SlC9Q3ZMfjkW0YPy4rnBDrSrt)"><g><g><linearGradient id="_lgradient_2" x1="0" y1="0.5" x2="1" y2="0.5" gradientTransform="matrix(256,0,0,256,0,0)" gradientUnits="userSpaceOnUse"><stop offset="3.976974501695681e-15%" stop-opacity="1" style="stop-color:rgb(23,133,234)"/><stop offset="100%" stop-opacity="1" style="stop-color:rgb(35,189,148)"/></linearGradient><path d=" M 102.98 157.817 C 103.048 156.738 103.082 155.976 103.082 155.491 C 103.082 141.408 100.88 130.73 96.538 123.751 C 92.196 116.772 85.939 113.463 77.3 113.463 C 68.17 113.463 61.518 116.811 56.973 123.695 C 52.428 130.578 50.084 141.199 50.084 155.169 L 50.084 157.828 C 56.295 158.692 67.024 159.127 81.913 159.127 C 88.958 159.174 95.996 158.736 102.98 157.817 L 102.98 157.817 L 102.98 157.817 Z  M 231.539 52.745 L 231.212 54.236 C 229.924 60.046 228.643 66.562 227.406 73.592 L 221.195 108.867 C 219.14 120.51 217.807 128.697 217.242 133.203 C 216.294 140.617 216.859 141.848 217.056 142.052 C 217.423 142.425 217.893 142.68 218.406 142.786 C 218.829 142.887 220.461 143.034 225.825 143.17 L 226.068 143.17 L 226.971 144.401 L 226.068 149.528 L 224.854 150.561 L 224.656 150.561 C 216.932 150.143 210.275 149.929 204.865 149.929 C 199.185 149.929 190.981 150.143 180.49 150.561 L 180.247 150.561 L 179.298 149.432 L 180.236 144.118 L 181.512 143.119 L 181.658 143.119 C 190.552 142.475 193.29 141.735 194.024 141.227 C 194.329 141.007 194.939 140.126 195.543 136.71 L 202.618 96.58 C 194.408 102.266 188.412 106.557 184.781 109.341 L 184.685 109.397 C 182.037 110.536 179.175 111.091 176.294 111.024 C 166.995 111.024 160.061 107.839 155.696 101.56 C 151.038 94.999 149.733 85.665 151.822 73.829 C 153.72 63.101 157.469 54.631 162.98 48.668 C 164.821 46.692 168.728 43.897 174.578 40.356 C 180.127 37.007 185.95 34.136 191.986 31.774 C 195.234 30.546 198.677 29.919 202.149 29.922 C 205.425 29.931 208.685 30.375 211.844 31.243 C 188.588 11.042 158.805 -0.056 128 0 C 57.306 0 0 57.308 0 128.003 C -0.02 143.158 2.656 158.196 7.905 172.413 C 8.786 145.649 15.997 126.851 29.362 116.512 C 48.989 101.368 67.893 93.689 85.555 93.689 C 104.753 93.689 119.835 99.335 130.388 110.402 C 141.117 121.803 146.588 138.37 146.588 159.663 C 146.588 161.436 146.537 164.102 146.43 167.817 L 146.43 168.139 L 144.279 170.878 L 143.968 170.962 C 129.931 174.791 111.089 176.733 87.961 176.733 C 83.833 176.733 77.515 176.812 69.186 176.97 C 61.468 177.117 55.437 177.196 51.242 177.207 C 52.032 192.064 56.809 204.537 65.443 214.283 C 74.663 224.955 86.843 230.359 101.665 230.359 C 111.659 230.359 123.731 226.858 137.543 219.952 L 138.237 219.602 L 142.946 225.288 L 135.572 241.883 L 135.323 242.042 C 126.591 247.64 117.001 251.769 106.933 254.266 C 113.894 255.42 120.938 256 127.994 256 C 198.694 256 256 198.693 256 128.003 C 256.041 100.957 247.474 74.599 231.539 52.745 L 231.539 52.745 L 231.539 52.745 Z  M 174.16 67.426 C 172.76 75.365 173.07 81.927 175.075 86.93 C 177.249 92.311 181.252 94.925 187.311 94.925 C 193.736 94.925 199.513 91.853 204.487 85.795 L 210.828 49.707 C 207.57 43.942 202.404 41.017 195.464 41.017 C 184.425 41.017 177.249 49.899 174.16 67.426 Z " fill="url(#_lgradient_2)"/></g></g></g></g></svg>